<svg width="128" height="128" viewBox="0 0 128 128" fill="none" xmlns="http://www.w3.org/2000/svg">
<g clip-path="url(#clip0)">
<path d="M64.3741 53.9334C64.3741 52.5529 63.2549 51.4334 61.8742 51.4334H54.788H25.8456L29.8624 42.9967C30.4558 41.7502 29.9263 40.2582 28.6799 39.6647C27.4334 39.0717 25.9414 39.6007 25.3479 40.8472L20.3079 51.4334H11.5335H4.44725C3.06651 51.4334 1.94727 52.5529 1.94727 53.9334C1.94727 55.3139 3.06651 56.4334 4.44725 56.4334H7.70398L4.1995 64.4076C4.062 64.7226 3.98825 65.0696 3.98825 65.4133V114.02C3.98825 114.363 4.062 114.71 4.1995 115.025L7.70398 123H4.44725C3.06651 123 1.94727 124.119 1.94727 125.5C1.94727 126.88 3.06651 127.999 4.44725 127.999H11.5245C11.528 127.999 11.5312 128 11.5347 128C11.5395 128 11.5442 127.999 11.549 127.999H54.7722C54.777 127.999 54.7817 128 54.7865 128C54.7897 128 54.7932 127.999 54.7967 127.999H61.8742C63.2549 127.999 64.3741 126.88 64.3741 125.5C64.3741 124.119 63.2549 123 61.8742 123H58.6152L62.1154 115.024C62.2534 114.71 62.3262 114.363 62.3262 114.02V100.938C62.3262 99.5574 61.2069 98.4379 59.8262 98.4379C58.4454 98.4379 57.3262 99.5574 57.3262 100.938V111.52H8.98797V67.9136H57.3262V78.488C57.3262 79.8685 58.4454 80.988 59.8262 80.988C61.2069 80.988 62.3262 79.8685 62.3262 78.488V65.4136C62.3262 65.0704 62.2532 64.7231 62.1154 64.4089L58.6152 56.4334H61.8742C63.2549 56.4334 64.3741 55.3142 64.3741 53.9334ZM55.9989 116.52L53.155 123H13.1654L10.3175 116.52H55.9989ZM10.3175 62.9136L13.1654 56.4334H21.8759C21.8789 56.4334 21.8819 56.4339 21.8849 56.4339C21.8871 56.4339 21.8896 56.4334 21.8919 56.4334H53.1552L55.9992 62.9136H10.3175Z" fill="white"/>
<path d="M10.676 40.2053C15.489 40.2053 19.405 36.2896 19.405 31.4763C19.405 26.6631 15.4893 22.7473 10.676 22.7473C5.86276 22.7473 1.94727 26.6631 1.94727 31.4763C1.94727 36.2896 5.86301 40.2053 10.676 40.2053ZM10.676 27.7473C12.7323 27.7473 14.405 29.4201 14.405 31.4763C14.405 33.5326 12.7323 35.2053 10.676 35.2053C8.62001 35.2053 6.94727 33.5326 6.94727 31.4763C6.94727 29.4201 8.62001 27.7473 10.676 27.7473Z" fill="white"/>
<path d="M22.227 19.9877C27.04 19.9877 30.956 16.0687 30.956 11.2517C30.956 6.43846 27.0403 2.52271 22.227 2.52271C17.4138 2.52271 13.498 6.43846 13.498 11.2517C13.498 16.0687 17.4138 19.9877 22.227 19.9877ZM22.227 7.52271C24.2833 7.52271 25.956 9.19546 25.956 11.2517C25.956 13.3117 24.2833 14.9877 22.227 14.9877C20.1708 14.9877 18.498 13.3117 18.498 11.2517C18.498 9.19546 20.1708 7.52271 22.227 7.52271Z" fill="white"/>
<path d="M22.958 89.8191C22.958 98.4173 27.4398 105.153 33.161 105.153C38.8783 105.153 43.3568 98.4173 43.3568 89.8191C43.3568 81.2208 38.8783 74.4856 33.161 74.4856C27.4398 74.4856 22.958 81.2211 22.958 89.8191ZM38.3565 89.8191C38.3565 95.7333 35.6135 100.153 33.1608 100.153C30.7048 100.153 27.9578 95.7333 27.9578 89.8191C27.9578 83.9048 30.7045 79.4856 33.1608 79.4856C35.6135 79.4856 38.3565 83.9048 38.3565 89.8191Z" fill="white"/>
<path d="M118.053 41.9975C114.897 39.5098 112.404 37.5445 112.404 28.3796V16.1869C114.275 15.2619 115.565 13.3342 115.565 11.1099V5.66072C115.565 2.53924 113.025 0 109.904 0H87.2778C84.1566 0 81.6173 2.53924 81.6173 5.66072V11.1099C81.6173 13.3342 82.9073 15.2619 84.7778 16.1869V28.3796C84.7778 37.5435 82.2853 39.5075 79.1298 41.9938C75.3799 44.9485 71.1299 48.2975 71.1299 61.3386V120.17C71.1299 124.487 74.6419 127.999 78.9586 127.999H118.224C122.541 127.999 126.052 124.487 126.052 120.17V61.3386C126.052 48.3022 121.803 44.9527 118.053 41.9975ZM86.6173 5.66072C86.6173 5.30247 86.9198 4.99997 87.2778 4.99997H109.904C110.262 4.99997 110.565 5.30247 110.565 5.66072V11.1099C110.565 11.4682 110.262 11.7707 109.904 11.7707H87.2778C86.9198 11.7707 86.6173 11.4682 86.6173 11.1099V5.66072ZM121.052 120.17C121.052 121.704 119.757 122.999 118.224 122.999H78.9586C77.4251 122.999 76.1299 121.704 76.1299 120.17V103.643H83.7833C87.8443 107.339 93.062 109.362 98.5912 109.362C104.12 109.362 109.338 107.339 113.399 103.643H121.053V120.17H121.052ZM121.052 98.6432H112.399C111.736 98.6432 111.1 98.9067 110.631 99.3754C107.415 102.591 103.14 104.362 98.5912 104.362C94.0427 104.362 89.767 102.591 86.5515 99.3754C86.0828 98.9067 85.4468 98.6432 84.7838 98.6432H76.1301V70.3653H84.7838C85.4468 70.3653 86.0828 70.1018 86.5515 69.6331C89.767 66.4176 94.0427 64.6466 98.5912 64.6466C103.14 64.6466 107.415 66.4176 110.631 69.6331C111.1 70.1018 111.736 70.3653 112.399 70.3653H121.052V98.6432ZM121.052 65.3654H113.399C109.338 61.6696 104.12 59.6467 98.591 59.6467C93.0618 59.6467 87.844 61.6696 83.7831 65.3654H76.1296V61.3389C76.1296 50.7235 78.9538 48.4982 82.2241 45.9215C85.7648 43.1317 89.7775 39.9695 89.7775 28.3798V16.7707H107.404V28.3798C107.404 39.9703 111.417 43.1335 114.958 45.9245C118.228 48.502 121.052 50.728 121.052 61.3389V65.3654H121.052Z" fill="white"/>
<path d="M111.343 88.2544H85.8398C84.4591 88.2544 83.3398 89.3739 83.3398 90.7544C83.3398 92.1349 84.4591 93.2544 85.8398 93.2544H111.343C112.724 93.2544 113.843 92.1349 113.843 90.7544C113.843 89.3739 112.724 88.2544 111.343 88.2544Z" fill="white"/>
<path d="M85.8398 75.7542C84.4591 75.7542 83.3398 76.8737 83.3398 78.2542C83.3398 79.6347 84.4591 80.7542 85.8398 80.7542H111.343C112.724 80.7542 113.843 79.6347 113.843 78.2542C113.843 76.8737 112.724 75.7542 111.343 75.7542H85.8398Z" fill="white"/>
<path d="M59.8262 87.2092C58.4454 87.2092 57.3262 88.3322 57.3262 89.713C57.3262 91.0937 58.4454 92.213 59.8262 92.213C61.2069 92.213 62.3262 91.0935 62.3262 89.713V89.706C62.3262 88.3252 61.2069 87.2092 59.8262 87.2092Z" fill="white"/>
</g>
<defs>
<clipPath id="clip0">
<rect width="128" height="128" fill="white"/>
</clipPath>
</defs>
</svg>
