<svg width="128" height="128" viewBox="0 0 128 128" fill="none" xmlns="http://www.w3.org/2000/svg">
<path d="M116 93.2151H110.343L112.243 91.3151C113.734 89.8129 114.568 87.7811 114.564 85.6647C114.56 83.5483 113.718 81.5197 112.221 80.0232C110.725 78.5266 108.696 77.6841 106.58 77.68C104.463 77.6759 102.432 78.5106 100.929 80.0014L96.1059 84.8251C93.2082 83.4054 89.9457 82.9055 86.7559 83.3924L65.6276 86.5424L67.5216 63.8159C70.5607 65.8468 74.1336 66.9316 77.7889 66.9331C87.8301 66.9331 95.9994 58.9181 95.9994 49.0666C95.9994 40.6214 90.0661 33.4794 81.8789 31.6514C82.0288 30.6635 82.1041 29.6658 82.1039 28.6666C82.1039 17.5649 72.8959 8.53312 61.5789 8.53312C58.7254 8.53361 55.9021 9.1173 53.2824 10.2484C51.3513 8.26273 49.0403 6.6862 46.487 5.61273C43.9337 4.53926 41.1904 3.99082 38.4206 4.00012C27.1024 4.00012 17.8956 13.0319 17.8956 24.1334C17.8965 26.6317 18.3703 29.1072 19.2919 31.4294C10.6321 32.8041 3.99962 40.1896 3.99962 49.0669C3.99962 58.9184 12.1689 66.9334 22.2101 66.9334C24.4051 66.9333 26.5826 66.5432 28.6411 65.7814L29.8541 80.3386C28.5817 80.113 27.2919 79.9997 25.9996 80.0001C25.8746 80.0001 25.7479 80.0029 25.6221 80.0049C23.9691 76.8606 21.5444 74.8249 18.4846 74.0599C17.9715 73.9355 17.4301 74.0191 16.9783 74.2923C16.5266 74.5656 16.2012 75.0064 16.0732 75.5186C15.9452 76.0308 16.0249 76.5728 16.2949 77.0265C16.5649 77.4802 17.0034 77.8087 17.5146 77.9404C19.0224 78.3347 20.3431 79.2478 21.2446 80.5191C17.6638 81.3107 14.3377 82.985 11.5688 85.3895C8.79985 87.794 6.67592 90.8526 5.39016 94.2871C4.10439 97.7215 3.69757 101.423 4.2067 105.055C4.71583 108.686 6.12475 112.133 8.30534 115.082C10.4859 118.03 13.369 120.387 16.6924 121.937C20.0158 123.488 23.674 124.183 27.3345 123.96C30.9949 123.736 34.5414 122.601 37.6515 120.658C40.7615 118.714 43.3365 116.025 45.1421 112.833L86.7561 119.038C87.5513 119.157 88.3543 119.217 89.1584 119.218C91.9527 119.216 94.6968 118.474 97.1114 117.068L101.7 121.657C102.441 122.404 103.324 122.998 104.295 123.404C105.267 123.81 106.31 124.02 107.363 124.022C108.416 124.024 109.459 123.818 110.433 123.416C111.406 123.014 112.29 122.423 113.035 121.679C113.78 120.934 114.37 120.05 114.772 119.076C115.174 118.103 115.38 117.06 115.378 116.007C115.376 114.953 115.166 113.911 114.76 112.939C114.355 111.967 113.761 111.085 113.013 110.343L111.885 109.215H116C118.121 109.215 120.156 108.372 121.656 106.872C123.157 105.372 124 103.337 124 101.215C124 99.0934 123.157 97.0585 121.656 95.5583C120.156 94.058 118.121 93.2151 116 93.2151ZM103.757 82.8304C104.507 82.0802 105.524 81.6587 106.585 81.6587C107.646 81.6587 108.664 82.0801 109.414 82.8302C110.164 83.5804 110.585 84.5978 110.585 85.6587C110.585 86.7195 110.164 87.7369 109.414 88.4871L104.383 93.5181C103.317 91.1009 101.727 88.9504 99.7291 87.2216C99.6636 87.1651 99.5954 87.1134 99.5291 87.0579L103.757 82.8304ZM29.5084 60.9649C27.2934 62.257 24.7744 62.9364 22.2101 62.9334C14.3746 62.9334 7.99962 56.7129 7.99962 49.0669C7.99962 41.4209 14.3746 35.2001 22.2026 35.2001H22.2336C22.2756 35.2016 22.3179 35.2026 22.3601 35.2031C22.7148 35.2069 23.064 35.1163 23.3721 34.9406C23.6802 34.7649 23.936 34.5105 24.1134 34.2034C24.2907 33.8962 24.3832 33.5475 24.3814 33.1928C24.3795 32.8382 24.2834 32.4904 24.1029 32.1851C22.6592 29.7469 21.8965 26.9659 21.8944 24.1324C21.8944 15.2376 29.3081 8.00012 38.4206 8.00012C40.8684 7.98981 43.2883 8.52016 45.5074 9.55328C47.7265 10.5864 49.69 12.0968 51.2579 13.9766C51.5512 14.3294 51.9568 14.5706 52.4069 14.6598C52.8569 14.7491 53.3239 14.6808 53.7296 14.4666C56.1509 13.1953 58.8449 12.5319 61.5796 12.5334C70.6921 12.5334 78.1046 19.7709 78.1046 28.6669C78.1047 30.0521 77.9229 31.4314 77.5639 32.7694C77.4888 33.0491 77.4753 33.3418 77.5244 33.6272C77.5735 33.9127 77.6841 34.184 77.8484 34.4226C78.0127 34.6611 78.2268 34.8611 78.476 35.0087C78.7252 35.1564 79.0035 35.2481 79.2916 35.2776C86.5364 36.0199 91.9996 41.9479 91.9996 49.0669C91.9996 56.7129 85.6246 62.9334 77.7891 62.9334C75.8134 62.9361 73.8583 62.5323 72.0454 61.7471C70.2324 60.9619 68.6004 59.8121 67.2509 58.3691C67.0027 58.1017 66.6862 57.9072 66.3355 57.8067C65.9848 57.7062 65.6133 57.7036 65.2612 57.7991C64.909 57.8946 64.5898 58.0846 64.3379 58.3485C64.086 58.6124 63.9111 58.9402 63.8321 59.2964C62.1996 66.6574 55.4086 72.0001 47.6839 72.0001C40.9216 72.0001 34.9089 68.0449 32.3659 61.9236C32.2563 61.6599 32.0916 61.4227 31.8828 61.228C31.6739 61.0333 31.4258 60.8855 31.1551 60.7947C30.8843 60.7039 30.5973 60.6721 30.3133 60.7014C30.0292 60.7308 29.7548 60.8206 29.5084 60.9649ZM23.0616 84.2439C23.6255 86.1139 23.9409 88.05 23.9996 90.0024C23.9999 90.5328 24.2109 91.0414 24.5862 91.4163C24.9615 91.7911 25.4703 92.0015 26.0007 92.0012C26.5312 92.0009 27.0398 91.7899 27.4146 91.4147C27.7895 91.0394 27.9999 90.5305 27.9996 90.0001C27.9534 87.9881 27.6722 85.9883 27.1616 84.0416C31.2013 84.2998 35.0348 85.9176 38.0381 88.6316C35.9199 89.2671 33.4924 90.5424 32.2109 93.1066C31.9973 93.5336 31.9436 94.0229 32.0594 94.4861L33.1094 98.6914L26.7411 96.1441C26.2643 95.9536 25.7325 95.9536 25.2556 96.1441L18.8886 98.6904L19.9386 94.4851C20.0544 94.0219 20.0007 93.5326 19.7871 93.1056C18.5056 90.5424 16.0781 89.2671 13.9599 88.6306C16.5111 86.3269 19.6702 84.8043 23.0616 84.2439ZM25.9996 120C22.7474 120.002 19.5555 119.123 16.7635 117.455C13.9715 115.787 11.6838 113.394 10.1439 110.529C8.60405 107.665 7.86956 104.436 8.0186 101.187C8.16765 97.9387 9.19467 94.7911 10.9904 92.0796C12.3234 92.2459 14.6654 92.7569 15.8564 94.3264L14.0594 101.515C13.97 101.872 13.9811 102.248 14.0914 102.599C14.2017 102.95 14.4069 103.265 14.6845 103.507C14.962 103.749 15.301 103.91 15.6641 103.972C16.0272 104.034 16.4004 103.994 16.7424 103.857L25.9996 100.154L35.2569 103.857C35.5989 103.994 35.972 104.034 36.3352 103.972C36.6983 103.91 37.0373 103.749 37.3148 103.507C37.5923 103.265 37.7975 102.95 37.9078 102.599C38.0181 102.248 38.0292 101.872 37.9399 101.515L36.1429 94.3264C36.7749 93.4946 37.8044 92.8644 39.2139 92.4481C39.8012 92.277 40.4014 92.1536 41.0086 92.0791C42.8044 94.7906 43.8316 97.9382 43.9807 101.187C44.1298 104.436 43.3954 107.664 41.8555 110.529C40.3156 113.394 38.028 115.787 35.2359 117.455C32.4438 119.123 29.2519 120.002 25.9996 120ZM44.2519 89.7306C41.7393 86.0031 38.1507 83.1296 33.9641 81.4926L33.0024 69.9501C35.0338 71.9912 37.4738 73.5798 40.1624 74.6116L40.1024 74.6316L42.0889 80.5916L42.0914 80.5991L42.1024 80.6316C42.1794 80.8879 42.3071 81.1262 42.478 81.3323C42.6488 81.5383 42.8592 81.708 43.0968 81.8312C43.3344 81.9545 43.5943 82.0288 43.8612 82.0497C44.128 82.0707 44.3963 82.0379 44.6502 81.9532C44.9042 81.8686 45.1385 81.7338 45.3394 81.5569C45.5403 81.38 45.7036 81.1646 45.8197 80.9235C45.9358 80.6823 46.0024 80.4203 46.0154 80.153C46.0283 79.8856 45.9875 79.6184 45.8954 79.3671L44.7024 75.7879C45.6895 75.9284 46.6853 75.9992 47.6824 75.9996C48.9062 75.9986 50.1276 75.8899 51.3324 75.6746L50.1016 79.3674C50.0094 79.6186 49.9686 79.8859 49.9816 80.1532C49.9946 80.4206 50.0612 80.6826 50.1773 80.9237C50.2934 81.1649 50.4567 81.3803 50.6576 81.5572C50.8585 81.7341 51.0928 81.8688 51.3468 81.9535C51.6007 82.0381 51.869 82.0709 52.1358 82.05C52.4027 82.029 52.6626 81.9547 52.9002 81.8315C53.1378 81.7082 53.3482 81.5386 53.519 81.3325C53.6899 81.1264 53.8176 80.8882 53.8946 80.6319L53.9056 80.5994L53.9081 80.5919L55.8946 74.6319C55.9328 74.5161 55.9604 74.3971 55.9769 74.2764C58.6775 73.116 61.0937 71.3825 63.0581 69.1959L61.5621 87.1484L44.2519 89.7306ZM97.1176 112.179C95.7995 113.347 94.2418 114.212 92.5537 114.713C90.8657 115.215 89.0883 115.341 87.3464 115.082L74.0011 113.092L73.9996 104C73.9996 103.47 73.7889 102.961 73.4138 102.586C73.0388 102.211 72.5301 102 71.9996 102C71.4692 102 70.9605 102.211 70.5854 102.586C70.2103 102.961 69.9996 103.47 69.9996 104L70.0011 112.495L46.8439 109.042C48.5601 103.957 48.3593 98.4197 46.2794 93.4721L53.9996 92.3211V106C53.9996 106.531 54.2103 107.039 54.5854 107.414C54.9605 107.789 55.4692 108 55.9996 108C56.5301 108 57.0388 107.789 57.4138 107.414C57.7889 107.039 57.9996 106.531 57.9996 106V91.7251L85.9996 87.5501V100C85.9996 100.531 86.2103 101.039 86.5854 101.414C86.9605 101.789 87.4692 102 87.9996 102C88.5301 102 89.0388 101.789 89.4138 101.414C89.7889 101.039 89.9996 100.531 89.9996 100V87.2464C92.635 87.4513 95.1327 88.5058 97.1176 90.2514C100.22 92.9251 102 96.9219 102 101.215C102 105.508 100.22 109.505 97.1176 112.179ZM110.185 118.829C109.435 119.579 108.418 120 107.357 120C106.296 120 105.279 119.579 104.528 118.829L100.346 114.646C102.344 112.742 103.877 110.404 104.826 107.813L110.185 113.172C110.934 113.923 111.355 114.94 111.355 116C111.355 117.061 110.934 118.078 110.185 118.829V118.829ZM116 105.215H107.885L105.895 103.225C106.083 101.435 106.017 99.6284 105.701 97.8574L106.343 97.2151H116C117.06 97.2151 118.078 97.6365 118.828 98.3867C119.578 99.1368 120 100.154 120 101.215C120 102.276 119.578 103.293 118.828 104.044C118.078 104.794 117.06 105.215 116 105.215Z" fill="white"/>
<path d="M88 110C89.1046 110 90 109.105 90 108C90 106.895 89.1046 106 88 106C86.8954 106 86 106.895 86 108C86 109.105 86.8954 110 88 110Z" fill="white"/>
<path d="M72.3911 94.0372C71.9699 93.9532 71.5328 94.0069 71.1445 94.1904C70.7562 94.3739 70.4372 94.6774 70.2346 95.0561C70.0321 95.4349 69.9567 95.8687 70.0197 96.2936C70.0827 96.7184 70.2807 97.1117 70.5844 97.4154C70.8881 97.7191 71.2815 97.917 71.7063 97.9799C72.1312 98.0429 72.565 97.9675 72.9437 97.7648C73.3224 97.5622 73.6259 97.2432 73.8094 96.8548C73.9928 96.4665 74.0464 96.0294 73.9623 95.6082C73.8847 95.2205 73.694 94.8645 73.4144 94.5849C73.1348 94.3054 72.7788 94.1148 72.3911 94.0372Z" fill="white"/>
</svg>
