<svg width="16" height="16" viewBox="0 0 16 16" fill="none" xmlns="http://www.w3.org/2000/svg">
<g clip-path="url(#clip0)">
<path d="M13.9889 2.01206C12.6914 0.714563 10.9663 0 9.13141 0C7.29651 0 5.57141 0.714563 4.27394 2.01206C2.97648 3.30953 2.26188 5.03463 2.26188 6.8695C2.26188 8.54709 2.85951 10.1327 3.95351 11.3838L0.138414 15.1989C-0.0448359 15.3822 -0.0448359 15.6793 0.138414 15.8626C0.230039 15.9542 0.350133 16 0.470195 16C0.590258 16 0.710383 15.9542 0.801977 15.8625L4.6171 12.0474C5.86826 13.1414 7.45382 13.7391 9.13141 13.7391C10.9664 13.7391 12.6914 13.0245 13.9889 11.727C15.2864 10.4295 16.0009 8.70444 16.0009 6.86953C16.0009 5.03463 15.2864 3.30953 13.9889 2.01206ZM13.3253 11.0634C11.0128 13.3759 7.2501 13.3759 4.93757 11.0634C2.62507 8.75091 2.62507 4.98819 4.93757 2.67569C6.09395 1.51931 7.61244 0.941312 9.13144 0.941312C10.6501 0.941312 12.1692 1.51959 13.3253 2.67569C15.6378 4.98816 15.6378 8.75087 13.3253 11.0634Z" fill="black"/>
</g>
<defs>
<clipPath id="clip0">
<rect width="16" height="16" fill="white"/>
</clipPath>
</defs>
</svg>
