<svg width="128" height="128" viewBox="0 0 128 128" fill="none" xmlns="http://www.w3.org/2000/svg">
<path d="M94.5957 28C94.3357 28 94.0765 28.0037 93.8372 28.01C83.8317 28.1778 77.0175 31.6252 72 36.1177V22C72 21.6286 71.8966 21.2645 71.7013 20.9486C71.5061 20.6327 71.2267 20.3774 70.8945 20.2113C70.0325 19.7803 62.3468 16 58 16C55.3618 16 52.028 16.5188 48.8043 17.0203C45.6525 17.5105 42.3895 18.0168 40.0148 18C37.9188 17.9848 34.6148 17.4983 31.42 17.0278C27.988 16.5225 24.439 16 22 16C17.6533 16 9.96775 19.7803 9.1055 20.2113C8.77332 20.3774 8.49395 20.6327 8.2987 20.9486C8.10344 21.2645 8.00001 21.6286 8 22V54C8.00001 54.3409 8.08715 54.6761 8.25313 54.9738C8.41911 55.2715 8.65842 55.5219 8.94837 55.7011C9.23831 55.8804 9.56924 55.9825 9.90976 55.9979C10.2503 56.0133 10.5891 55.9414 10.894 55.789C13.004 54.735 19.1118 52 22 52C24.1463 52 27.5478 52.5 30.8373 52.9852C34.321 53.4982 37.6123 53.9825 39.9853 54C42.6915 54.023 46.1103 53.4873 49.419 52.9728C52.4928 52.4945 55.671 52 58 52C58.6038 52.0164 59.2041 52.0961 59.7913 52.2378C58.575 54.011 57.4088 55.4767 56.1878 56.4128C53.0075 58.85 47.6333 60.0585 40.1925 60.0025C40.034 60.0025 39.8983 60.0003 39.7873 60.0003C33.2873 60.0003 28 65.3835 28 72.0003V80.0003C27.9829 81.5609 28.31 83.1062 28.9582 84.526C29.6063 85.9459 30.5596 87.2053 31.75 88.2148C30.0589 88.5405 28.4574 89.2256 27.0539 90.2237C25.6503 91.2218 24.4774 92.5096 23.6145 94H19.3895L13.9 87.8408L13.8653 87.8027C13.3415 87.2344 12.7057 86.7808 11.9979 86.4705C11.2901 86.1602 10.5256 86 9.75275 86C8.97991 86 8.21545 86.1602 7.50762 86.4705C6.7998 86.7808 6.16396 87.2344 5.64025 87.8027C4.60676 88.9343 4.02701 90.4074 4.01202 91.9398C3.99703 93.4723 4.54785 94.9564 5.559 96.108L8.4845 100L5.5595 103.892C4.54831 105.043 3.99749 106.528 4.01253 108.06C4.02757 109.593 4.60741 111.066 5.641 112.197C6.16471 112.766 6.80055 113.219 7.50837 113.529C8.2162 113.84 8.98066 114 9.7535 114C10.5263 114 11.2908 113.84 11.9986 113.529C12.7065 113.219 13.3423 112.766 13.866 112.197L13.9008 112.159L19.3898 106H23.6148C24.6676 107.823 26.1814 109.337 28.0043 110.39C29.8271 111.443 31.8948 111.998 34 112C38.1053 112 42.9603 114.445 48.1 117.033C54.5863 120.299 61.9375 124 70 124C73.4955 123.999 76.9487 123.235 80.1182 121.761C83.2878 120.287 86.0971 118.139 88.3499 115.466C90.6027 112.793 92.2446 109.661 93.1608 106.288C94.077 102.914 94.2454 99.3817 93.6543 95.9365C112.722 95.1155 124 86.3 124 72V58C124 41.458 110.809 28 94.5957 28ZM18.493 102C18.211 102 17.9322 102.06 17.6749 102.175C17.4176 102.29 17.1876 102.459 17 102.669L10.9345 109.475C10.784 109.641 10.6001 109.774 10.3947 109.865C10.1893 109.955 9.96711 110.001 9.74271 110C9.51831 109.998 9.29674 109.949 9.09254 109.856C8.88833 109.763 8.70608 109.628 8.55775 109.46C8.1991 109.058 8.00088 108.538 8.00088 108C8.00088 107.461 8.1991 106.942 8.55775 106.54C8.60759 106.487 8.65441 106.431 8.698 106.373L12.585 101.202C12.8455 100.855 12.9863 100.433 12.9863 100C12.9863 99.5665 12.8455 99.1448 12.585 98.7982L8.698 93.6267C8.65441 93.5685 8.60759 93.5127 8.55775 93.4597C8.1991 93.058 8.00088 92.5384 8.00088 91.9999C8.00088 91.4614 8.1991 90.9417 8.55775 90.54C8.70608 90.3716 8.88833 90.2365 9.09254 90.1434C9.29674 90.0504 9.51831 90.0015 9.74271 90.0001C9.96711 89.9986 10.1893 90.0446 10.3947 90.1351C10.6001 90.2255 10.784 90.3583 10.9345 90.5247L17 97.3307C17.1876 97.5412 17.4176 97.7097 17.6749 97.825C17.9322 97.9404 18.211 98 18.493 98H22.1698C21.9434 99.3237 21.9434 100.676 22.1698 102H18.493ZM12 35.2578C14.656 34.021 19.517 32 22 32C24.1463 32 27.5478 32.5 30.8373 32.9852C34.321 33.4982 37.6123 33.9825 39.9853 34C42.6915 34.017 46.1103 33.4873 49.419 32.9728C52.4928 32.4945 55.671 32 58 32C60.483 32 65.344 34.021 68 35.2578V38.8693C65.1438 37.6283 60.8528 36 58 36C55.3618 36 52.028 36.5187 48.8043 37.0202C45.6525 37.5105 42.3895 38.0215 40.0148 38C37.9188 37.9848 34.6148 37.4982 31.42 37.0277C27.988 36.5225 24.439 36 22 36C19.1473 36 14.8563 37.6283 12 38.8695V35.2578ZM22 20C24.1463 20 27.5478 20.5 30.8373 20.9853C34.321 21.4983 37.6123 21.9825 39.9853 22C42.6915 22.023 46.1103 21.4872 49.419 20.9727C52.4928 20.4945 55.671 20 58 20C60.4825 20 65.3435 22.0207 68 23.2575V30.8692C65.1438 29.6282 60.8528 28 58 28C55.3618 28 52.028 28.5188 48.8043 29.0203C45.6525 29.5105 42.3895 30.0225 40.0148 30C37.9188 29.9847 34.6148 29.4983 31.42 29.0278C27.988 28.5225 24.439 28 22 28C19.1473 28 14.8563 29.6282 12 30.8695V23.2575C14.6565 22.0207 19.5175 20 22 20ZM48.8043 49.0202C45.6525 49.5105 42.3895 50.0202 40.0148 50C37.9188 49.9847 34.6148 49.4982 31.42 49.0277C27.988 48.5225 24.439 48 22 48C19.1473 48 14.8563 49.6283 12 50.8693V43.2578C14.656 42.021 19.517 40 22 40C24.1463 40 27.5478 40.5 30.8373 40.9852C34.321 41.4982 37.6123 41.9825 39.9853 42C42.6915 42.022 46.1103 41.4875 49.419 40.9728C52.4928 40.4945 55.671 40 58 40C60.0123 40 63.5865 41.3275 66.2835 42.4893C64.7103 44.6063 63.3503 46.7333 62.0973 48.6995C60.4555 48.231 59.109 47.9995 58 47.9995C55.3618 48 52.028 48.5187 48.8043 49.0202ZM39.7873 64C39.89 64 40.0158 64 40.1623 64.002C48.5005 64.06 54.7168 62.5788 58.6203 59.5875C61.125 57.6683 63.1058 54.5592 65.3995 50.9595C70.6995 42.641 77.297 32.288 93.9228 32.0095C94.1463 32.0038 94.3704 32.0008 94.5953 32.0005C108.604 32 120 43.6635 120 58C120 65.1608 117.269 71.675 112.31 76.3428C106.988 81.3522 99.509 84 90.681 84H87.8717C85.6247 81.4825 82.8709 79.4684 79.791 78.0898C76.711 76.7111 73.3744 75.9989 70 76C62.65 76 55.8933 79.075 49.843 82.0928C46.7063 81.5677 43.5733 80.9027 40.2823 80.0622C33.075 78.2215 32 74.2207 32 72C32 67.5887 35.4933 64 39.7873 64ZM38.0623 87.3515C35.271 86.2568 32.2288 84.2015 32.0123 80.43C33.8623 81.98 36.3123 83.1765 39.2915 83.9378C40.8633 84.3392 42.3998 84.7002 43.9195 85.0283C42.031 85.9549 40.0725 86.7317 38.0623 87.3515ZM70 120C62.8877 120 56.285 116.675 49.9 113.46C44.323 110.652 39.0555 108 34 108C31.8783 108 29.8434 107.157 28.3431 105.657C26.8429 104.157 26 102.122 26 100C26 97.8783 26.8429 95.8434 28.3431 94.3431C29.8434 92.8429 31.8783 92 34 92C39.0555 92 44.323 89.3477 49.9 86.5397C56.285 83.325 62.8877 80 70 80C75.3043 80 80.3914 82.1071 84.1421 85.8579C87.8929 89.6086 90 94.6957 90 100C90 105.304 87.8929 110.391 84.1421 114.142C80.3914 117.893 75.3043 120 70 120ZM92.6172 91.972C92.1269 90.5945 91.5111 89.265 90.7777 88C100.603 87.9802 108.994 84.9583 115.053 79.2562C116.974 77.4483 118.631 75.3778 119.973 73.1062C119.386 84.6962 109.52 91.4942 92.6172 91.972Z" fill="white"/>
<path d="M98 72C100.769 72 103.476 71.1789 105.778 69.6406C108.08 68.1022 109.875 65.9157 110.934 63.3576C111.994 60.7994 112.271 57.9845 111.731 55.2687C111.191 52.553 109.857 50.0584 107.899 48.1005C105.942 46.1426 103.447 44.8092 100.731 44.269C98.0155 43.7288 95.2006 44.0061 92.6424 45.0657C90.0843 46.1253 87.8978 47.9197 86.3594 50.222C84.8211 52.5243 84 55.2311 84 58C84.0042 61.7118 85.4805 65.2703 88.1051 67.8949C90.7297 70.5195 94.2882 71.9958 98 72ZM98 48C99.9778 48 101.911 48.5865 103.556 49.6853C105.2 50.7841 106.482 52.3459 107.239 54.1732C107.996 56.0004 108.194 58.0111 107.808 59.9509C107.422 61.8907 106.47 63.6726 105.071 65.0711C103.673 66.4696 101.891 67.422 99.9509 67.8079C98.0111 68.1937 96.0004 67.9957 94.1732 67.2388C92.3459 66.4819 90.7841 65.2002 89.6853 63.5557C88.5865 61.9112 88 59.9778 88 58C88.003 55.3488 89.0575 52.8069 90.9322 50.9322C92.8069 49.0575 95.3487 48.003 98 48Z" fill="white"/>
</svg>
