<svg width="32" height="32" viewBox="0 0 32 32" fill="none" xmlns="http://www.w3.org/2000/svg">
<path d="M30.2047 10.7497H26.9712L22.4705 2.24854C22.2276 1.78984 21.659 1.61485 21.2001 1.8577C20.7414 2.10055 20.5664 2.66933 20.8093 3.12802L24.8444 10.7497H7.1501L11.1853 3.12802C11.4281 2.66933 11.2531 2.10055 10.7944 1.8577C10.3358 1.61491 9.76694 1.78984 9.52409 2.24854L5.02329 10.7497H1.79525C0.805365 10.7497 0 11.5551 0 12.545V14.6327C0 15.5809 0.739076 16.3593 1.67144 16.4232L4.82436 29.5316C4.92592 29.954 5.30373 30.2517 5.73811 30.2517H26.2557C26.6899 30.2517 27.0676 29.9542 27.1693 29.5321L30.3296 16.4231C31.2615 16.3586 32 15.5805 32 14.6327V12.545C32 11.5551 31.1947 10.7497 30.2047 10.7497ZM1.87964 12.6294H30.1204V14.5482H1.87964V12.6294ZM27.1825 21.4571H23.0677L23.6957 16.4279H28.395L27.1825 21.4571ZM16.9411 28.372V23.3368H20.9388L20.3101 28.372H16.9411ZM11.6923 28.372L11.063 23.3368H15.0615V28.372H11.6923ZM3.60585 16.4279H8.30546L8.93395 21.4571H4.81552L3.60585 16.4279ZM10.1996 16.4279H15.0615V21.4571H10.8281L10.1996 16.4279ZM16.9411 21.4571V16.4279H21.8014L21.1735 21.4571H16.9411ZM5.26758 23.3368H9.16878L9.79802 28.372H6.47869L5.26758 23.3368ZM25.5155 28.372H22.2044L22.833 23.3368H26.7293L25.5155 28.372Z" fill="black"/>
</svg>
